<?xml version="1.0" encoding="utf-8"?>
<!-- Generator: Adobe Illustrator 24.3.0, SVG Export Plug-In . SVG Version: 6.00 Build 0)  -->
<svg version="1.1" id="레이어_1" xmlns="http://www.w3.org/2000/svg" xmlns:xlink="http://www.w3.org/1999/xlink" x="0px"
	 y="0px" viewBox="0 0 218.18 193.94" style="enable-background:new 0 0 218.18 193.94;" xml:space="preserve">
<style type="text/css">
	.st0{fill:none;}
	.st1{fill:none;stroke:#000000;stroke-width:5;stroke-miterlimit:10;}
	.st2{fill:#E599BE;stroke:#000000;stroke-width:4;stroke-miterlimit:10;}
	.st3{fill:#E599BE;}
	.st4{fill:#E599BE;stroke:#000000;stroke-miterlimit:10;}
</style>
<path class="st0" d="M22.6,42.14"/>
<path class="st0" d="M197.07,89.29"/>
<path class="st1" d="M82.85,52.8l2.72,12L74,58.8c0,0-49.36,8.19-51.4-16.66S69.92,24.1,69.92,24.1s19.74,8.17,19.74,15.32
	S82.85,52.8,82.85,52.8z"/>
<path class="st1" d="M142.08,52.8l-2.83,12l12.02-6c0,0,51.27,8.19,53.4-16.66c2.12-24.85-49.15-18.04-49.15-18.04
	s-20.51,8.17-20.51,15.32S142.08,52.8,142.08,52.8z"/>
<ellipse class="st2" cx="73.53" cy="96.31" rx="25.65" ry="23.15"/>
<ellipse class="st2" cx="145.77" cy="94.4" rx="25.65" ry="23.15"/>
<path class="st3" d="M50.51,172.86v-40.51c0,0-1.28-13.54,23.02-12.9c24.3,0.64,22.94,12.9,22.94,12.9l0.01,40.51H50.51z"/>
<path class="st4" d="M122.79,172.86v-40.51c0,0-1.28-13.54,23.02-12.9c24.3,0.64,22.94,12.9,22.94,12.9l0.01,40.51H122.79z"/>
<g>
	<g>
		<path d="M51.65,173.2c-0.09-9.5,0.04-19.08,0.88-28.55c0.39-4.39,1.04-8.81,2.37-13.03c0.92-2.93,2.35-6.06,4.84-8
			c3.21-2.49,7.98-1.81,11.78-1.88c4.48-0.09,9.21-0.59,13.64,0.22c3.35,0.61,6.93,2.15,8.43,5.43c0.8,1.75,0.94,3.78,1.1,5.67
			c0.2,2.36,0.36,4.72,0.48,7.08c0.53,10.68,0.17,21.39-1.02,32.02c-0.15,1.34,1.26,2.5,2.5,2.5c1.48,0,2.35-1.15,2.5-2.5
			c1.15-10.22,1.52-20.52,1.08-30.8c-0.11-2.53-0.27-5.05-0.47-7.57c-0.19-2.31-0.33-4.72-1.04-6.94c-1.39-4.33-4.83-7.24-8.98-8.83
			c-4.62-1.76-9.77-1.44-14.62-1.35c-2.55,0.05-5.11,0.1-7.66,0.15c-2.35,0.05-4.81,0.06-7.04,0.85
			c-8.32,2.96-10.91,12.83-12.11,20.63c-0.88,5.7-1.18,11.48-1.4,17.24c-0.23,5.88-0.31,11.77-0.25,17.66
			C46.68,176.42,51.68,176.42,51.65,173.2L51.65,173.2z"/>
	</g>
</g>
<g>
	<g>
		<path d="M125.64,172.49c-1.14-8.16-2.19-16.41-1.86-24.67c0.16-4.07,0.7-8.11,1.8-12.04c0.52-1.86,1.14-3.7,1.94-5.45
			c0.73-1.61,1.53-3.44,2.98-4.53c1.4-1.06,3.27-1.39,4.96-1.67c2.21-0.37,4.44-0.66,6.67-0.91c4.56-0.53,9.19-1.02,13.78-1.05
			c1.82-0.01,3.43,0.32,4.81,1.57c1.46,1.31,2.59,2.95,3.48,4.7c1.96,3.85,2.02,8.07,1.82,12.29c-0.52,10.71-1.13,21.42-1.7,32.13
			c-0.17,3.22,4.83,3.21,5,0c0.55-10.31,1.1-20.62,1.64-30.93c0.26-5,0.23-9.88-1.77-14.56c-1.73-4.05-4.8-8.29-9.17-9.68
			c-2.28-0.73-4.77-0.52-7.12-0.39c-2.54,0.14-5.07,0.34-7.6,0.59c-2.59,0.25-5.17,0.57-7.74,0.92c-2.2,0.3-4.48,0.54-6.6,1.26
			c-2.24,0.77-4.12,2-5.56,3.89c-1.38,1.81-2.29,3.94-3.13,6.04c-1.69,4.2-2.62,8.62-3.13,13.1c-1.17,10.24,0.26,20.59,1.68,30.73
			c0.19,1.34,1.89,2.07,3.08,1.75C125.33,175.17,125.82,173.83,125.64,172.49L125.64,172.49z"/>
	</g>
</g>
<g>
	<g>
		<path d="M39.62,43.62c3.22,0,3.22-5,0-5C36.4,38.62,36.4,43.62,39.62,43.62L39.62,43.62z"/>
	</g>
</g>
<g>
	<g>
		<path d="M56.3,42.6c3.22,0,3.22-5,0-5C53.08,37.6,53.08,42.6,56.3,42.6L56.3,42.6z"/>
	</g>
</g>
<g>
	<g>
		<path d="M72.98,43.28c3.22,0,3.22-5,0-5C69.77,38.28,69.76,43.28,72.98,43.28L72.98,43.28z"/>
	</g>
</g>
<g>
	<g>
		<path d="M155.03,42.94c3.22,0,3.22-5,0-5C151.81,37.94,151.8,42.94,155.03,42.94L155.03,42.94z"/>
	</g>
</g>
<g>
	<g>
		<path d="M170.34,44.3c3.22,0,3.22-5,0-5C167.13,39.3,167.12,44.3,170.34,44.3L170.34,44.3z"/>
	</g>
</g>
<g>
	<g>
		<path d="M186,41.91c3.22,0,3.22-5,0-5C182.79,36.91,182.78,41.91,186,41.91L186,41.91z"/>
	</g>
</g>
</svg>
