<?xml version="1.0" encoding="utf-8"?>
<!-- Generator: Adobe Illustrator 24.3.0, SVG Export Plug-In . SVG Version: 6.00 Build 0)  -->
<svg version="1.1" id="레이어_1" xmlns="http://www.w3.org/2000/svg" xmlns:xlink="http://www.w3.org/1999/xlink" x="0px"
	 y="0px" viewBox="0 0 120 138.6" style="enable-background:new 0 0 120 138.6;" xml:space="preserve">
<style type="text/css">
	.st0{fill:#FFFFFF;stroke:#000000;stroke-width:2;stroke-miterlimit:10;}
	.st1{fill:#FFFFFF;}
	.st2{fill:#FAD2B8;}
	.st3{stroke:#000000;stroke-width:3;stroke-miterlimit:10;}
	.st4{fill:#F9CEB5;stroke:#F5CBB3;stroke-miterlimit:10;}
	.st5{fill:#F5C51E;stroke:#000000;stroke-width:2;stroke-miterlimit:10;}
	.st6{fill:#705C3D;stroke:#000000;stroke-width:2;stroke-miterlimit:10;}
</style>
<image style="display:none;overflow:visible;" width="171" height="230" xlink:href="197382F6.jpg"  transform="matrix(1 0 0 1 -30.629 -3.5)">
</image>
<path class="st0" d="M14,31.9c2.5,6.7,7.2,11.9,14.5,14.4l0.9,50.3h55.1L85.2,47c0,0,6.8-3.4,8.7-5.9c1.9-2.5,4.8-5.3,5.6-9.2
	s0.6-14.3,0.6-14.3s0.1-5.6-3.5-6.9c-3.6-1.3-5.3,4.2-5.3,4.2s-8.6,18.9-10,18.8C64.9,25.4,48.4,25.5,33,33l-9.4-17
	c0,0-1.7-4.9-5.1-5.4c-3.4-0.5-5.3,6.7-5.3,6.7S12.2,31.1,14,31.9z"/>
<polygon class="st0" points="25,120.3 29.4,96.7 84.5,96.7 88.9,122.6 24.6,122.6 "/>
<polygon class="st1" points="30.4,95.3 30.2,98 83.6,97.8 83.5,95.3 "/>
<ellipse class="st2" cx="57" cy="77.3" rx="14.2" ry="15.6"/>
<ellipse cx="57.1" cy="67.8" rx="5.1" ry="3.4"/>
<line class="st3" x1="57.1" y1="77.2" x2="57.1" y2="70.6"/>
<g>
	<g>
		<path d="M46.8,73.7C48,78.1,53,79.1,57,79.3c2.1,0.1,4.4-0.1,6.3-1.2c1.7-1.1,2.8-2.7,3-4.7c0.1-0.7-0.6-1.2-1.2-1.2
			c-0.7,0-1.2,0.6-1.3,1.2c-0.1,1.2-1.2,2.2-2.2,2.8c-1.5,0.8-3.3,0.7-4.9,0.6c-2.7-0.2-6.6-0.7-7.4-3.8
			C48.8,71.4,46.4,72.1,46.8,73.7L46.8,73.7z"/>
	</g>
</g>
<g>
	<g>
		<path d="M41.8,53.1c2.6,0,5.2,0,7.7,0c0.7,0,1.3-0.6,1.2-1.2c0-0.7-0.5-1.2-1.2-1.2c-2.6,0-5.2,0-7.7,0c-0.7,0-1.3,0.6-1.2,1.2
			C40.6,52.5,41.1,53.1,41.8,53.1L41.8,53.1z"/>
	</g>
</g>
<g>
	<g>
		<path d="M63.6,53.3c2.7-0.1,5.5-0.1,8.2-0.2c0.7,0,1.3-0.6,1.2-1.2c0-0.7-0.5-1.3-1.2-1.2c-2.7,0.1-5.5,0.1-8.2,0.2
			c-0.7,0-1.3,0.6-1.2,1.2C62.4,52.7,62.9,53.3,63.6,53.3L63.6,53.3z"/>
	</g>
</g>
<g>
	<g>
		<path d="M45.7,61.4c3.2,0,3.2-5,0-5C42.5,56.4,42.5,61.4,45.7,61.4L45.7,61.4z"/>
	</g>
</g>
<g>
	<g>
		<path d="M68,61.5c3.2,0,3.2-5,0-5C64.8,56.5,64.8,61.5,68,61.5L68,61.5z"/>
	</g>
</g>
<path class="st4" d="M18.4,32.1c3.1,5.2,4,5,7.3,8.7c3.3,3.7-6.4-24.2-7.2-22.4C17.5,20.2,15.3,26.9,18.4,32.1z"/>
<path class="st4" d="M95.4,32.6c-3.3,5.2-4.2,5-7.6,8.7c-3.5,3.7,6.7-24.2,7.6-22.4C96.3,20.7,98.7,27.4,95.4,32.6z"/>
<path class="st5" d="M32.1,116.8c0,0-1.4-6.6-0.6-9.6c0.8-2.9,2.6-5.9,2.6-5.9l-5.1-4c0,0-4.6,1.7-4.4,7S27.4,114.8,32.1,116.8z"/>
<path class="st6" d="M39.9,99.3c0,0,9.9-2.2,10.3,6.1c0.4,8.3,0,8.9,0,8.9s-1.4,6-6.2,6s-5.3,0-5.3,0l5.8-10.6L39.9,99.3z"/>
<ellipse class="st5" cx="37.9" cy="109.8" rx="6.6" ry="10.5"/>
<path class="st5" d="M82.6,116.8c0,0,1.4-6.6,0.6-9.6c-0.8-2.9-2.6-5.9-2.6-5.9l5.2-4c0,0,4.8,1.7,4.5,7S87.5,114.8,82.6,116.8z"/>
<path class="st6" d="M74.6,99.3c0,0-10.2-2.2-10.6,6.1s0,8.9,0,8.9s1.5,6,6.4,6s5.4,0,5.4,0l-6-10.6L74.6,99.3z"/>
<ellipse class="st5" cx="76.7" cy="109.8" rx="6.8" ry="10.5"/>
</svg>
