<?xml version="1.0" encoding="utf-8"?>
<!-- Generator: Adobe Illustrator 24.3.0, SVG Export Plug-In . SVG Version: 6.00 Build 0)  -->
<svg version="1.1" id="레이어_1" xmlns="http://www.w3.org/2000/svg" xmlns:xlink="http://www.w3.org/1999/xlink" x="0px"
	 y="0px" viewBox="0 0 241 220.1" style="enable-background:new 0 0 241 220.1;" xml:space="preserve">
<style type="text/css">
	.st0{fill:none;stroke:#009944;stroke-width:14;stroke-miterlimit:10;}
	.st1{fill:none;stroke:#000000;stroke-width:10;stroke-miterlimit:10;}
	.st2{fill:#FF0000;stroke:#E60012;stroke-width:10;stroke-miterlimit:10;}
</style>
<ellipse class="st0" cx="66.1" cy="71.2" rx="49.9" ry="48.7"/>
<line class="st1" x1="207.2" y1="39.4" x2="30.9" y2="206.2"/>
<g>
	<g>
		<path class="st2" d="M138.8,130.3c17.9,19.4,36.7,37.9,56.4,55.4c5.6,4.9,11.2,9.8,16.9,14.6c1,0.9,2.5,1,3.5,0
			c0.9-0.9,1-2.7,0-3.5c-20.2-16.9-39.6-34.9-58-53.8c-5.2-5.3-10.3-10.7-15.3-16.2C140.2,124.4,136.7,128,138.8,130.3L138.8,130.3z
			"/>
	</g>
</g>
<g>
	<g>
		<path class="st2" d="M219.7,119.2c-12.4,9.7-24.5,19.7-36.4,29.9c-11.9,10.3-23.6,20.9-35,31.8c-6.4,6.1-12.8,12.4-19,18.6
			c-2.3,2.3,1.3,5.8,3.5,3.5c11.1-11.1,22.4-22,34-32.6c11.6-10.6,23.6-21,35.7-31.1c6.8-5.7,13.8-11.2,20.7-16.7
			c1.1-0.8,0.9-2.7,0-3.5C222.2,118.2,220.7,118.4,219.7,119.2L219.7,119.2z"/>
	</g>
</g>
</svg>
