<?xml version="1.0" encoding="utf-8"?>
<!-- Generator: Adobe Illustrator 24.3.0, SVG Export Plug-In . SVG Version: 6.00 Build 0)  -->
<svg version="1.1" id="레이어_1" xmlns="http://www.w3.org/2000/svg" xmlns:xlink="http://www.w3.org/1999/xlink" x="0px"
	 y="0px" viewBox="0 0 179.8 187.88" style="enable-background:new 0 0 179.8 187.88;" xml:space="preserve">
<style type="text/css">
	.st0{fill:#F2FAFD;stroke:#000000;stroke-width:3;stroke-miterlimit:10;}
	.st1{fill:#DC4912;}
</style>
<polygon class="st0" points="39.14,32.39 117.02,19.37 139.48,155.2 38.12,171.54 18.97,54.1 "/>
<polygon class="st0" points="21.25,53.82 37.33,34.91 39.65,50.75 "/>
<g>
	<g>
		<path class="st1" d="M33.49,62.34c9.4-1.39,18.83-2.58,28.28-3.56c9.33-0.96,18.68-1.51,28.03-2.33c4.95-0.43,9.82-1.26,14.3-3.5
			c2.88-1.44,0.35-5.75-2.52-4.32c-3.58,1.79-7.61,2.44-11.56,2.8c-4.48,0.4-8.98,0.63-13.47,0.99c-9.45,0.76-18.88,1.73-28.28,2.9
			c-5.37,0.67-10.74,1.4-16.1,2.2c-1.34,0.2-2.07,1.89-1.75,3.08C30.81,62.03,32.15,62.54,33.49,62.34L33.49,62.34z"/>
	</g>
</g>
<g>
	<g>
		<path class="st1" d="M33.53,77.31c19.89-2.05,39.8-4.03,59.68-6.16c5.56-0.6,11.12-1.27,16.63-2.21c1.33-0.23,2.08-1.87,1.75-3.08
			c-0.39-1.41-1.74-1.97-3.08-1.75c-9.53,1.61-19.18,2.43-28.79,3.43c-9.8,1.01-19.6,2.02-29.39,3.03c-5.6,0.58-11.2,1.16-16.8,1.73
			c-1.34,0.14-2.5,1.05-2.5,2.5C31.03,76.06,32.18,77.45,33.53,77.31L33.53,77.31z"/>
	</g>
</g>
<g>
	<g>
		<path class="st1" d="M40.41,90.68c20.47-1,40.87-3.5,60.98-7.48c5.73-1.13,11.43-2.39,17.1-3.77c3.13-0.76,1.8-5.58-1.33-4.82
			c-19.57,4.73-39.47,8.06-59.52,9.87c-5.73,0.52-11.48,0.91-17.23,1.2C37.21,85.84,37.19,90.84,40.41,90.68L40.41,90.68z"/>
	</g>
</g>
<g>
	<g>
		<path class="st1" d="M40.16,106.75c19.3-1.07,38.5-3.84,57.31-8.28c3.13-0.74,1.81-5.56-1.33-4.82
			c-18.39,4.34-37.12,7.06-55.99,8.1C36.96,101.93,36.94,106.93,40.16,106.75L40.16,106.75z"/>
	</g>
</g>
<g>
	<g>
		<path class="st1" d="M53.24,129c9.1-2.68,18.73-2.81,28.09-4.05c9.66-1.27,19.23-3.07,28.69-5.41c3.12-0.77,1.8-5.6-1.33-4.82
			c-9.33,2.31-18.78,4.13-28.32,5.36c-9.48,1.22-19.24,1.39-28.46,4.1C48.83,125.09,50.15,129.91,53.24,129L53.24,129z"/>
	</g>
</g>
<g>
	<g>
		<path class="st1" d="M57.57,143.69c8.49-1.95,17.2-3.08,25.78-4.52c8.68-1.45,17.35-2.9,26.03-4.34c4.99-0.83,9.98-1.67,14.98-2.5
			c1.33-0.22,2.08-1.87,1.75-3.08c-0.39-1.41-1.74-1.97-3.08-1.75c-17.43,2.91-34.86,5.82-52.3,8.73c-4.84,0.81-9.7,1.53-14.49,2.63
			C53.11,139.59,54.44,144.41,57.57,143.69L57.57,143.69z"/>
	</g>
</g>
</svg>
