<?xml version="1.0" encoding="utf-8"?>
<!-- Generator: Adobe Illustrator 24.3.0, SVG Export Plug-In . SVG Version: 6.00 Build 0)  -->
<svg version="1.1" id="레이어_1" xmlns="http://www.w3.org/2000/svg" xmlns:xlink="http://www.w3.org/1999/xlink" x="0px"
	 y="0px" viewBox="0 0 120.8 151.7" style="enable-background:new 0 0 120.8 151.7;" xml:space="preserve">
<style type="text/css">
	.st0{fill:#94C141;stroke:#000000;stroke-width:3;stroke-miterlimit:10;}
	.st1{fill:#FFFFFF;stroke:#000000;stroke-width:3;stroke-miterlimit:10;}
	.st2{fill:#F5C922;stroke:#000000;stroke-miterlimit:10;}
	.st3{fill:none;stroke:#000000;stroke-width:3;stroke-miterlimit:10;}
	.st4{fill:none;stroke:#000000;stroke-miterlimit:10;}
	.st5{fill:#FFFFFF;stroke:#000000;stroke-width:2;stroke-miterlimit:10;}
</style>
<path class="st0" d="M59.6,18c-32.2-4.9-38.2,58.4-40.3,84.2c-4.3,46.9,63.2,56.5,78.4,19c1.5-8.3,1.5-11.8,1.5-11.8
	s11.6-8.3,11.2-17.4c-0.4-9.1-5.4-15.9-9.7-16.1c-4.3-0.2-3.9-16.5-5-19.7C94.4,46.4,82.3-11.9,59.6,18z"/>
<ellipse class="st1" cx="59.3" cy="110.5" rx="29.9" ry="26.9"/>
<circle class="st2" cx="98.1" cy="92.3" r="5.4"/>
<ellipse class="st2" cx="59.3" cy="122" rx="11.7" ry="5.5"/>
<g>
	<g>
		<path d="M51.2,122.1c4.8,2.5,10.5,2.5,15.3,0c0.7-0.4,0.1-1.4-0.6-1.1c-4.4,2.2-9.7,2.2-14.1,0C51.1,120.6,50.5,121.7,51.2,122.1
			L51.2,122.1z"/>
	</g>
</g>
<g>
	<g>
		<path d="M50.3,113.4c3.2,0,3.2-5,0-5C47.1,108.4,47.1,113.4,50.3,113.4L50.3,113.4z"/>
	</g>
</g>
<g>
	<g>
		<path d="M67.4,113.4c3.2,0,3.2-5,0-5C64.1,108.4,64.1,113.4,67.4,113.4L67.4,113.4z"/>
	</g>
</g>
<path class="st3" d="M59.6,18c0,0-8.1,50.7-3.9,57.5"/>
<path class="st4" d="M139.4,55.2"/>
<polygon class="st5" points="58,28.9 46.1,32.7 56.3,42.4 "/>
<polygon class="st5" points="56.2,43.4 43.5,46.7 54.5,55.2 "/>
<polygon class="st5" points="54.9,56.3 41,60.8 54.5,69.9 "/>
</svg>
