<?xml version="1.0" encoding="utf-8"?>
<!-- Generator: Adobe Illustrator 24.3.0, SVG Export Plug-In . SVG Version: 6.00 Build 0)  -->
<svg version="1.1" id="레이어_1" xmlns="http://www.w3.org/2000/svg" xmlns:xlink="http://www.w3.org/1999/xlink" x="0px"
	 y="0px" viewBox="0 0 347.7 361.5" style="enable-background:new 0 0 347.7 361.5;" xml:space="preserve">
<style type="text/css">
	.st0{fill:#EED567;}
	.st1{fill:#956134;}
</style>
<path class="st0" d="M47.2,161.9c0,0,26.4-75.9,116.2-79.7c89.8-3.8,151.7,67.3,151.7,67.3s-39.5,204-141.4,198.6
	S47.2,161.9,47.2,161.9z"/>
<g>
	<g>
		<path class="st1" d="M20.1,157.2c-0.1-12.8,7.3-24.4,13.5-35.1c6.4-11,13.1-21.8,20.6-32.2c14.2-19.6,31.4-37.3,52.3-49.6
			c11.3-6.7,23.6-11.6,36.5-14.2c1.3-0.3,2.1-1.8,1.7-3.1c-0.4-1.4-1.7-2-3.1-1.7c-23.9,4.8-45.6,17.6-63.5,33.9
			c-19,17.4-33.9,38.8-46.9,60.9c-3.7,6.3-7.5,12.6-10.6,19.2c-3.3,6.9-5.7,14.2-5.6,21.8C15.2,160.4,20.2,160.4,20.1,157.2
			L20.1,157.2z"/>
	</g>
</g>
<g>
	<g>
		<path class="st1" d="M141.2,23.8C155,40.3,165,59.8,170.5,80.6c1.6,5.9,2.8,11.9,3.6,17.9c0.2,1.3,1,2.5,2.5,2.5
			c1.2,0,2.7-1.2,2.5-2.5c-2.9-22.3-10.7-43.9-22.9-62.9c-3.5-5.4-7.3-10.5-11.4-15.4c-0.9-1-2.6-0.9-3.5,0
			C140.2,21.2,140.4,22.7,141.2,23.8L141.2,23.8z"/>
	</g>
</g>
<g>
	<g>
		<path class="st1" d="M179.8,101.5c1.7-21.2,9.5-41.7,22-58.9c3.5-4.8,7.4-9.3,11.5-13.5c2.3-2.3-1.3-5.8-3.5-3.5
			c-15.6,15.6-26.8,35.6-32,57.1c-1.5,6.2-2.5,12.5-3,18.8c-0.1,1.3,1.2,2.5,2.5,2.5C178.7,104,179.7,102.9,179.8,101.5L179.8,101.5
			z"/>
	</g>
</g>
<g>
	<g>
		<path class="st1" d="M213.2,29.5c22.5,7.5,43.4,19.6,61.4,35.1c18,15.6,33.1,34.5,44.2,55.7c6.2,11.9,11.1,24.4,14.5,37.4
			c0.8,3.1,5.6,1.8,4.8-1.3c-6.2-23.7-17.3-46.1-32.1-65.5c-14.8-19.5-33.2-36.2-54.1-48.9C240,34.8,227.5,29,214.5,24.7
			C211.5,23.7,210.2,28.5,213.2,29.5L213.2,29.5z"/>
	</g>
</g>
<g>
	<g>
		<path class="st1" d="M336.3,154.1c-22.7,2.6-44.7,8.5-65.8,17.2c-10.5,4.3-21,8.8-31.2,13.8c-4.8,2.4-9.4,5-13.7,8.2
			c-4.5,3.3-8.6,7.1-12.7,10.9c-9.6,9-19.2,18.1-28.7,27.3c-2.3,2.2,1.2,5.8,3.5,3.5c8.3-8,16.7-16,25.1-23.9c4-3.8,8-7.6,12.2-11.1
			c4.1-3.4,8.5-6.3,13.1-8.8c4.7-2.5,9.6-4.7,14.4-6.9c5.2-2.3,10.3-4.6,15.6-6.8c10.3-4.4,20.8-8.3,31.5-11.3
			c12-3.4,24.2-5.8,36.6-7.2c1.3-0.2,2.5-1,2.5-2.5C338.8,155.4,337.7,154,336.3,154.1L336.3,154.1z"/>
	</g>
</g>
<g>
	<g>
		<path class="st1" d="M183,234.2c-2.7,22-3,44.3-0.9,66.4c0.6,6.3,1.4,12.6,2.3,18.8c0.2,1.3,1.9,2.1,3.1,1.7
			c1.4-0.4,2-1.7,1.7-3.1c-3.3-21.6-4.3-43.6-2.9-65.4c0.4-6.2,1-12.3,1.7-18.4c0.2-1.3-1.3-2.5-2.5-2.5
			C184,231.7,183.2,232.9,183,234.2L183,234.2z"/>
	</g>
</g>
<g>
	<g>
		<path class="st1" d="M185.9,317.6c-0.8,0.9-1.8,1.4-3,1.7c-1.4,0.4-2.8,0.7-4.3,0.9c-2.7,0.4-5.9,0.8-8.5-0.3
			c-1.2-0.5-2.7-0.4-3.4,0.9c-0.6,1-0.4,2.9,0.9,3.4c3.9,1.7,7.9,1.5,12.1,0.9c3.5-0.6,7.3-1.3,9.8-4c0.9-1,1-2.6,0-3.5
			C188.5,316.7,186.8,316.6,185.9,317.6L185.9,317.6z"/>
	</g>
</g>
<g>
	<g>
		<path class="st1" d="M170.4,321.6c6.9-9.3,5-21.8,4.9-32.6c0-12.8,1.4-25.6,0.9-38.4c-0.3-7.1-1.2-14.3-3.2-21.2
			c-0.9-3.1-5.7-1.8-4.8,1.3c3.5,11.9,3.4,24.4,2.9,36.6c-0.3,6.1-0.6,12.2-0.7,18.3c-0.1,5.7,0.3,11.4,0.2,17.1
			c-0.1,5.8-1,11.5-4.5,16.3c-0.8,1.1-0.2,2.8,0.9,3.4C168.2,323.3,169.6,322.7,170.4,321.6L170.4,321.6z"/>
	</g>
</g>
<g>
	<g>
		<path class="st1" d="M17.4,159.7c23.4-0.9,46.5,3.6,68.8,10.6c10.8,3.4,21.7,7.2,31.8,12.3c4.8,2.4,9.5,5.2,13.8,8.6
			c4.3,3.4,8.1,7.2,11.8,11.2c4.2,4.6,8.1,9.5,12,14.3c4.4,5.5,8.8,10.9,13.2,16.4c0.8,1.1,2.7,0.9,3.5,0c1-1,0.8-2.5,0-3.5
			c-7.5-9.4-14.9-19-22.8-28c-7.4-8.5-15.7-15.9-25.6-21.4c-10-5.6-21-9.5-31.8-13.1c-11.3-3.8-22.9-6.9-34.7-9.1
			c-13.2-2.4-26.5-3.7-39.9-3.2C14.1,154.8,14.1,159.8,17.4,159.7L17.4,159.7z"/>
	</g>
</g>
</svg>
