<?xml version="1.0" encoding="utf-8"?>
<!-- Generator: Adobe Illustrator 24.3.0, SVG Export Plug-In . SVG Version: 6.00 Build 0)  -->
<svg version="1.1" id="레이어_2" xmlns="http://www.w3.org/2000/svg" xmlns:xlink="http://www.w3.org/1999/xlink" x="0px"
	 y="0px" viewBox="0 0 134.04 137.11" style="enable-background:new 0 0 134.04 137.11;" xml:space="preserve">
<style type="text/css">
	.st0{fill:#F6DC65;}
	.st1{fill:#8E613E;}
</style>
<path class="st0" d="M30,94.21c0,0-8.94-12.64,18.64-36s45.49-20.17,45.49-20.17s12.21,6.38,11.96,22.21s-6.13,30.17-6.13,30.17
	s10.47,22.17-4.47,30.6s-28.14-9.83-28.14-9.83S38.94,110.68,30,94.21z"/>
<g>
	<g>
		<path class="st1" d="M51.59,35.12c3.5,6.37,2.05,14.03,3.23,20.94c0.22,1.27,2.14,0.73,1.93-0.53
			c-1.22-7.16,0.21-14.79-3.43-21.41C52.69,32.99,50.96,33.99,51.59,35.12L51.59,35.12z"/>
	</g>
</g>
<g>
	<g>
		<path class="st1" d="M52.99,35.37c3.64-1.88,7.16-3.99,10.52-6.35c0.75-0.52,1.48-1.06,2.21-1.6c0.76-0.57,1.57-1.41,2.4-1.86
			c0.76-0.41,2.01,0.04,2.84,0.15c1.07,0.15,2.13,0.3,3.2,0.44c1.99,0.27,3.07-0.26,4.66-1.38c1.63-1.14,3.28-2.24,4.97-3.29
			c3.5-2.19,7.12-4.17,10.84-5.97c1.16-0.56,0.15-2.29-1.01-1.73c-3.72,1.8-7.34,3.78-10.84,5.97c-1.68,1.05-3.34,2.15-4.97,3.29
			c-0.77,0.54-1.5,1.23-2.49,1.24c-1.1,0.01-2.28-0.28-3.37-0.44c-1.49-0.21-3.47-0.9-4.84-0.02c-1.6,1.03-3.05,2.36-4.62,3.46
			c-3.36,2.36-6.88,4.47-10.52,6.35C50.84,34.23,51.85,35.96,52.99,35.37L52.99,35.37z"/>
	</g>
</g>
<g>
	<g>
		<path class="st1" d="M93.7,15.24c2.98,4,2.84,9.08,2.16,13.8c-0.68,4.71-1.57,9.4-2.58,14.05c-2.03,9.34-4.66,18.54-7.87,27.55
			c-1.85,5.19-3.89,10.3-6.12,15.34c-0.52,1.17,1.21,2.19,1.73,1.01c8.1-18.31,14.01-37.81,16.81-57.66
			c0.72-5.14,0.86-10.73-2.4-15.1C94.67,13.21,92.93,14.2,93.7,15.24L93.7,15.24z"/>
	</g>
</g>
<g>
	<g>
		<path class="st1" d="M78.36,87.66c3.92,8.24,7.34,16.7,10.25,25.34c0.41,1.21,2.34,0.69,1.93-0.53
			c-2.96-8.81-6.46-17.43-10.45-25.82C79.53,85.49,77.8,86.51,78.36,87.66L78.36,87.66z"/>
	</g>
</g>
<g>
	<g>
		<path class="st1" d="M85.14,118.56c2.02-1.33,3.92-2.84,5.67-4.52c0.38-0.36,0.39-1.05,0-1.41c-0.41-0.37-1.01-0.39-1.41,0
			c-0.83,0.8-1.69,1.56-2.59,2.28c-0.1,0.08-0.21,0.17-0.31,0.25c-0.01,0.01-0.16,0.12-0.1,0.08c0.07-0.06-0.12,0.09-0.14,0.1
			c-0.23,0.17-0.45,0.34-0.68,0.51c-0.47,0.34-0.95,0.67-1.44,0.99c-0.44,0.29-0.66,0.9-0.36,1.37
			C84.05,118.64,84.67,118.87,85.14,118.56L85.14,118.56z"/>
	</g>
</g>
<g>
	<g>
		<path class="st1" d="M85.27,117.56c-1.09-9.96-4.69-19.5-10.55-27.64c-0.75-1.03-2.48-0.04-1.73,1.01
			c5.64,7.83,9.23,17.03,10.28,26.63C83.41,118.83,85.41,118.84,85.27,117.56L85.27,117.56z"/>
	</g>
</g>
<g>
	<g>
		<path class="st1" d="M8.45,78.2c6.28,5.31,14.2,7.7,22.05,9.61c9.3,2.27,18.55,3.99,28.12,4.54c5.48,0.31,10.96,0.38,16.44,0.42
			c1.29,0.01,1.29-1.99,0-2c-9.33-0.08-18.7-0.19-27.95-1.54c-4.66-0.68-9.26-1.73-13.84-2.82c-3.83-0.91-7.66-1.85-11.38-3.13
			c-4.33-1.5-8.51-3.53-12.03-6.5C8.89,75.96,7.47,77.37,8.45,78.2L8.45,78.2z"/>
	</g>
</g>
<g>
	<g>
		<path class="st1" d="M39.78,44.86c2.44,1.94,4.88,3.89,7.42,5.7c1.23,0.88,2.49,1.71,3.77,2.52c1.22,0.77,2.39,1.56,3.35,2.65
			c0.85,0.97,2.26-0.45,1.41-1.41c-1.92-2.18-4.72-3.51-7.08-5.17c-2.56-1.8-5.01-3.75-7.46-5.7c-0.43-0.34-1-0.41-1.41,0
			C39.42,43.79,39.35,44.52,39.78,44.86L39.78,44.86z"/>
	</g>
</g>
<g>
	<g>
		<path class="st1" d="M39.95,44.23c-5.92,4.28-11.82,8.67-15.96,14.79c-2.19,3.24-4.28,6.46-6.86,9.43
			c-2.55,2.93-5.3,5.67-8.05,8.4c-0.91,0.91,0.5,2.32,1.41,1.41c2.65-2.63,5.29-5.26,7.76-8.07c2.49-2.84,4.65-5.87,6.71-9.03
			c4.14-6.35,9.93-10.83,16-15.21C41.99,45.21,40.99,43.47,39.95,44.23L39.95,44.23z"/>
	</g>
</g>
</svg>
