<?xml version="1.0" encoding="utf-8"?>
<!-- Generator: Adobe Illustrator 24.3.0, SVG Export Plug-In . SVG Version: 6.00 Build 0)  -->
<svg version="1.1" id="레이어_1" xmlns="http://www.w3.org/2000/svg" xmlns:xlink="http://www.w3.org/1999/xlink" x="0px"
	 y="0px" viewBox="0 0 224.24 280.81" style="enable-background:new 0 0 224.24 280.81;" xml:space="preserve">
<style type="text/css">
	.st0{fill:#F6DC65;}
	.st1{fill:#956134;}
</style>
<path class="st0" d="M46.74,103.24C150.8,40.69,269.19,84.87,152.82,209.55C81,345.68,22.73,145.65,46.74,103.24z"/>
<g>
	<g>
		<path class="st1" d="M116.46,168.31c-0.51,17.49-4.38,36.18-18.13,48.22c-1.02,0.89-0.91,2.63,0,3.54c1.01,1.01,2.52,0.89,3.54,0
			c14.72-12.89,19.05-33.02,19.6-51.76C121.55,165.1,116.55,165.1,116.46,168.31L116.46,168.31z"/>
	</g>
</g>
<g>
	<g>
		<path class="st1" d="M97.7,219.7c0.08,0.1,0.16,0.2,0.24,0.3c-0.13-0.17-0.26-0.34-0.39-0.51c0.79,1.03,1.43,2.14,1.94,3.33
			c-0.08-0.2-0.17-0.4-0.25-0.6c0.5,1.19,0.84,2.44,1.02,3.72c-0.03-0.22-0.06-0.44-0.09-0.66c0.01,0.09,0.02,0.17,0.03,0.26
			c0.09,0.69,0.22,1.26,0.73,1.77c0.43,0.43,1.15,0.76,1.77,0.73c0.65-0.03,1.32-0.24,1.77-0.73c0.42-0.45,0.81-1.13,0.73-1.77
			c-0.11-0.91-0.24-1.8-0.48-2.69c-0.23-0.88-0.56-1.71-0.92-2.55c-0.65-1.52-1.53-2.86-2.57-4.14c-0.38-0.47-1.19-0.73-1.77-0.73
			c-0.61,0-1.35,0.27-1.77,0.73c-0.44,0.48-0.76,1.1-0.73,1.77C97,218.64,97.26,219.16,97.7,219.7L97.7,219.7z"/>
	</g>
</g>
<g>
	<g>
		<path class="st1" d="M125.21,166.25c0.35,17.06,0.66,36.55-11.68,49.97c-2.89,3.14-6.3,5.62-10.22,7.32
			c-1.24,0.54-1.52,2.36-0.9,3.42c0.75,1.28,2.18,1.43,3.42,0.9c7.6-3.28,13.55-9.63,17.44-16.84c4.52-8.38,6.29-17.83,6.83-27.26
			c0.34-5.83,0.22-11.67,0.1-17.51C130.14,163.03,125.14,163.02,125.21,166.25L125.21,166.25z"/>
	</g>
</g>
<g>
	<g>
		<path class="st1" d="M32.2,72.15c-2.43,8.2,2.12,16.09,7.71,21.78c2.93,2.98,6.14,5.69,9.25,8.48c3.21,2.88,6.41,5.76,9.61,8.66
			c12.95,11.73,25.76,23.63,37.98,36.12c6.85,6.99,13.5,14.17,19.89,21.59c0.88,1.02,2.63,0.91,3.54,0c1.01-1.01,0.88-2.51,0-3.54
			c-11.05-12.81-22.89-24.91-35.11-36.6c-12.22-11.69-24.82-22.95-37.39-34.26c-5.75-5.17-13.2-12.3-10.65-20.9
			C37.93,70.38,33.11,69.06,32.2,72.15L32.2,72.15z"/>
	</g>
</g>
<g>
	<g>
		<path class="st1" d="M34.44,73.63c5.14,1.04,9.92-1.17,13.67-4.58c3.68-3.34,6.69-7.47,10.07-11.12
			c3.5-3.78,7.16-7.42,10.94-10.92c3.66-3.38,7.41-6.78,11.43-9.74c1.81-1.33,3.76-2.62,5.92-3.29c2.34-0.73,4.54-0.22,6.93-0.27
			c2.68-0.05,4.62-1.29,6.83-2.64c2.07-1.27,4.4-1.86,6.76-2.32c10.32-2.04,21.22-3.94,31.72-2.25c5.6,0.91,11.07,2.64,16.11,5.25
			c4.38,2.27,8.54,5.21,11.19,9.46c1.7,2.73,6.02,0.22,4.32-2.52c-5.21-8.38-15.09-13.16-24.3-15.71c-10.87-3-21.88-2.2-32.87-0.38
			c-5.17,0.86-10.87,1.36-15.44,4.14c-0.9,0.55-1.75,1.24-2.72,1.65c-1.06,0.44-2.23,0.31-3.35,0.22c-2.49-0.19-4.89-0.09-7.25,0.79
			c-4.83,1.8-8.79,5.33-12.66,8.63c-3.93,3.34-7.73,6.83-11.38,10.46c-4.17,4.15-8.11,8.5-11.95,12.96
			c-3.05,3.55-7.33,8.4-12.62,7.33c-1.32-0.27-2.7,0.38-3.08,1.75C32.35,71.79,33.11,73.36,34.44,73.63L34.44,73.63z"/>
	</g>
</g>
<g>
	<g>
		<path class="st1" d="M165.08,39.27c-2.34,17.09-5.35,34.14-10.49,50.63c-2.61,8.36-5.65,16.58-8.58,24.83
			c-2.96,8.33-5.92,16.67-8.88,25c-3.15,8.87-5.94,18.03-10.59,26.26c-1.58,2.81,2.73,5.33,4.32,2.52
			c4.18-7.39,6.85-15.51,9.68-23.49c2.99-8.41,5.98-16.82,8.97-25.24c2.94-8.29,5.99-16.54,8.73-24.9
			c2.72-8.27,4.94-16.68,6.75-25.19c2.04-9.63,3.59-19.36,4.92-29.11c0.18-1.34-0.32-2.68-1.75-3.08
			C166.99,37.21,165.27,37.93,165.08,39.27L165.08,39.27z"/>
	</g>
</g>
<g>
	<g>
		<path class="st1" d="M162.6,43.07c-5.43,3.15-11.56,5.09-17.84,5.46c-3.46,0.2-6.92-0.07-10.33,0.7
			c-1.43,0.32-2.95,0.97-4.44,0.83c-1.47-0.14-2.82-1.12-4.19-1.58c-2.92-0.98-5.96,0.29-8.84-0.69c-2.34-0.79-4.34-2.43-6.59-3.44
			c-2.54-1.14-5.36-1.63-8.03-0.58c-2.66,1.04-4.7,3.1-6.14,5.54c-3.25,5.52-3.51,12.51-2.65,18.69c0.91,6.6,3.32,12.79,5.89,18.89
			c2.66,6.32,5.17,12.62,7.05,19.23c1.83,6.44,3.31,12.98,5.18,19.41c2.07,7.1,4.89,13.84,7.96,20.56
			c3.01,6.58,6.01,13.18,7.67,20.25c1.03-1.03,2.05-2.05,3.08-3.08c-0.45-0.13-0.53-0.42-0.51-0.87c0.14-3.22-4.86-3.21-5,0
			c-0.11,2.65,1.67,4.95,4.18,5.69c1.89,0.56,3.5-1.27,3.08-3.08c-2.92-12.46-9.89-23.41-13.96-35.47
			c-4.18-12.4-6.28-25.39-11.21-37.55c-4.63-11.42-11.51-24.14-7.84-36.81c0.63-2.18,1.71-4.49,3.53-5.93
			c1.68-1.33,3.63-1.3,5.52-0.45c2.35,1.05,4.42,2.6,6.82,3.56c1.21,0.48,2.49,0.75,3.79,0.81c1.63,0.08,3.32-0.4,4.94-0.1
			c1.57,0.29,2.9,1.32,4.45,1.71c1.94,0.48,3.88,0.2,5.8-0.28c1.65-0.41,3.2-0.77,4.91-0.85c1.89-0.09,3.78-0.02,5.67-0.12
			c7.24-0.38,14.32-2.51,20.59-6.15C167.9,45.78,165.39,41.45,162.6,43.07L162.6,43.07z"/>
	</g>
</g>
</svg>
