<?xml version="1.0" encoding="utf-8"?>
<!-- Generator: Adobe Illustrator 24.3.0, SVG Export Plug-In . SVG Version: 6.00 Build 0)  -->
<svg version="1.1" id="레이어_1" xmlns="http://www.w3.org/2000/svg" xmlns:xlink="http://www.w3.org/1999/xlink" x="0px"
	 y="0px" viewBox="0 0 244.44 264.65" style="enable-background:new 0 0 244.44 264.65;" xml:space="preserve">
<style type="text/css">
	.st0{fill:#F6DC65;}
	.st1{fill:#956134;}
</style>
<path class="st0" d="M44.13,153.4c0,0,22.15-81.56,76.22-87.48s68.21,71.47,68.21,71.47s31.26,90.73-23.35,98.73
	s-141.43,8.89-139.5-19.57S44.13,153.4,44.13,153.4z"/>
<g>
	<g>
		<path class="st1" d="M16.87,62.66c-3.81,2.31-7.65,4.87-9.39,9.16c-0.83,2.04-1.09,4.35-0.47,6.49c0.64,2.22,2.11,4.06,3.67,5.72
			c6.4,6.78,13.33,13.11,20.37,19.21c14.1,12.23,29.08,23.4,44.33,34.15c8.66,6.11,17.42,12.08,26.18,18.04
			c2.67,1.82,5.17-2.51,2.52-4.32c-14.7-10.02-29.4-20.04-43.66-30.7C46.26,109.84,32.56,98.6,19.91,86.23
			c-1.73-1.69-3.44-3.4-5.12-5.13c-1.34-1.38-2.98-2.95-3.12-4.99c-0.31-4.42,4.53-7.18,7.73-9.12
			C22.14,65.32,19.63,60.99,16.87,62.66L16.87,62.66z"/>
	</g>
</g>
<g>
	<g>
		<path class="st1" d="M100.53,155.3c4.09,14.19,9.39,28.4,18.1,40.45c2.48,3.43,5.19,6.67,8.19,9.65c2.28,2.27,5.82-1.26,3.54-3.54
			c-10.04-10.01-16.56-22.86-21.25-36.11c-1.38-3.89-2.61-7.83-3.75-11.79C104.46,150.89,99.64,152.2,100.53,155.3L100.53,155.3z"/>
	</g>
</g>
<g>
	<g>
		<path class="st1" d="M132.32,194.97c-0.97,2.29-1.93,4.58-2.9,6.88c-0.27,0.65-0.45,1.22-0.25,1.93c0.16,0.58,0.61,1.21,1.15,1.49
			c0.58,0.31,1.28,0.46,1.93,0.25c0.57-0.19,1.25-0.57,1.49-1.15c0.97-2.29,1.93-4.58,2.9-6.88c0.27-0.65,0.45-1.22,0.25-1.93
			c-0.16-0.58-0.61-1.21-1.15-1.49c-0.58-0.31-1.28-0.46-1.93-0.25C133.25,194.01,132.57,194.39,132.32,194.97L132.32,194.97z"/>
	</g>
</g>
<g>
	<g>
		<path class="st1" d="M135.05,195.36c-11.69-8.44-14.67-23.83-15.58-37.29c-0.09-1.35-1.08-2.5-2.5-2.5c-1.28,0-2.59,1.15-2.5,2.5
			c1.05,15.48,4.75,32.01,18.06,41.61c1.1,0.79,2.79,0.19,3.42-0.9C136.68,197.52,136.14,196.15,135.05,195.36L135.05,195.36z"/>
	</g>
</g>
<g>
	<g>
		<path class="st1" d="M120.25,160.59c16.7-7.75,33.52-15.24,50.47-22.45c8.42-3.59,16.87-7.1,25.35-10.55
			c4.3-1.75,8.61-3.48,12.93-5.19c4.04-1.6,8.15-3.09,12.1-4.89c4.16-1.89,8.03-4.43,10.71-8.2c2.51-3.53,3.64-8.07,2.48-12.3
			c-0.85-3.1-5.67-1.78-4.82,1.33c2,7.28-5.44,12.4-11.09,14.94c-3.8,1.71-7.75,3.12-11.62,4.66c-4.09,1.63-8.17,3.27-12.24,4.92
			c-16.58,6.74-33.05,13.74-49.41,20.99c-9.16,4.06-18.29,8.2-27.38,12.42c-1.22,0.57-1.53,2.33-0.9,3.42
			C117.57,160.95,119.02,161.16,120.25,160.59L120.25,160.59z"/>
	</g>
</g>
<g>
	<g>
		<path class="st1" d="M232.54,94.41c-8.07-1.71-11.95-9.87-15.36-16.54c-3.92-7.68-8.8-14.72-14.87-20.85
			c-2.27-2.29-5.8,1.25-3.54,3.54c3.04,3.07,5.82,6.37,8.28,9.92c2.53,3.67,4.61,7.57,6.64,11.54c3.78,7.38,8.79,15.37,17.52,17.22
			C234.35,99.9,235.69,95.08,232.54,94.41L232.54,94.41z"/>
	</g>
</g>
<g>
	<g>
		<path class="st1" d="M200.03,57.49c-5.13,5.03-10.92,9.17-17.35,12.42c-1.2,0.61-1.55,2.31-0.9,3.42c0.72,1.22,2.21,1.51,3.42,0.9
			c6.75-3.42,12.96-7.9,18.36-13.2C205.86,58.77,202.33,55.23,200.03,57.49L200.03,57.49z"/>
	</g>
</g>
<g>
	<g>
		<path class="st1" d="M184.43,73.98c2.42-5.64,5.65-11.22,9.34-15.92c0.83-1.06,1.04-2.5,0-3.54c-0.87-0.87-2.7-1.07-3.54,0
			c-4.08,5.21-7.51,10.84-10.12,16.93c-0.53,1.24-0.37,2.68,0.9,3.42C182.06,75.49,183.9,75.22,184.43,73.98L184.43,73.98z"/>
	</g>
</g>
<g>
	<g>
		<path class="st1" d="M194.96,56c-0.3-4.35-2.2-8.6-5.54-11.47c-3.37-2.9-7.87-4.44-12.32-3.99c-1.3,0.13-2.56,1.06-2.5,2.5
			c0.06,1.24,1.11,2.64,2.5,2.5c0.92-0.09,1.82-0.08,2.74-0.02c0.45,0.03-0.07-0.02,0.2,0.02c0.21,0.03,0.41,0.07,0.61,0.11
			c0.41,0.08,0.81,0.18,1.21,0.3c0.24,0.07,0.48,0.15,0.71,0.23c0.05,0.02,0.63,0.24,0.4,0.14c-0.23-0.09,0.34,0.15,0.39,0.18
			c0.23,0.11,0.45,0.22,0.67,0.34c0.37,0.2,0.72,0.41,1.07,0.65c0.21,0.14,0.41,0.28,0.61,0.43c-0.26-0.2,0.08,0.08,0.17,0.16
			c0.65,0.56,1.25,1.17,1.78,1.85c-0.21-0.27,0.04,0.07,0.12,0.18c0.12,0.17,0.23,0.34,0.34,0.51c0.24,0.38,0.46,0.77,0.67,1.17
			c0.09,0.18,0.18,0.36,0.27,0.55c0.33,0.7-0.14-0.42,0.12,0.3c0.14,0.38,0.27,0.77,0.38,1.16c0.11,0.39,0.2,0.79,0.28,1.19
			c0.01,0.03,0.12,0.8,0.06,0.3c0.03,0.24,0.05,0.49,0.06,0.73c0.09,1.3,1.09,2.56,2.5,2.5C193.74,58.44,195.05,57.4,194.96,56
			L194.96,56z"/>
	</g>
</g>
<g>
	<g>
		<path class="st1" d="M176.1,40.31c-2.3,0.11-3.99-1.92-5.46-3.43c-1.99-2.02-4.12-3.86-6.47-5.47c-4.57-3.12-9.85-5.26-15.3-6.21
			c-1.33-0.23-2.69,0.36-3.08,1.75c-0.33,1.21,0.41,2.84,1.75,3.08c5.48,0.96,10.6,3.12,15.1,6.41c4.17,3.05,7.66,9.16,13.46,8.87
			C179.31,45.15,179.32,40.15,176.1,40.31L176.1,40.31z"/>
	</g>
</g>
<g>
	<g>
		<path class="st1" d="M144.11,26.93c-4.35,10.25-8.76,20.55-11.4,31.4c-1.35,5.53-2.08,11.19-3.6,16.68
			c-1.41,5.07-3.35,9.97-5.57,14.73c-2.59,5.53-5.53,10.89-8.46,16.25c-1.55,2.82,2.77,5.35,4.32,2.52
			c5.19-9.46,10.4-19.02,13.69-29.33c1.72-5.4,2.6-10.97,3.77-16.5c1.14-5.39,2.74-10.68,4.61-15.86
			c2.11-5.87,4.54-11.62,6.98-17.37c0.53-1.24,0.37-2.68-0.9-3.42C146.49,25.41,144.64,25.68,144.11,26.93L144.11,26.93z"/>
	</g>
</g>
<g>
	<g>
		<path class="st1" d="M108.94,27.74c0.83,20.03,2.27,40.04,4.36,59.98c0.59,5.66,1.23,11.32,1.93,16.97c0.16,1.34,1.03,2.5,2.5,2.5
			c1.22,0,2.67-1.15,2.5-2.5c-2.43-19.9-4.25-39.88-5.43-59.9c-0.33-5.68-0.62-11.37-0.85-17.06
			C113.81,24.54,108.81,24.52,108.94,27.74L108.94,27.74z"/>
	</g>
</g>
<g>
	<g>
		<path class="st1" d="M111.57,24.78c-9.45-0.19-19.09-0.33-28.3,2.09c-2.29,0.6-4.52,1.39-6.7,2.32c-2.05,0.88-4.03,1.95-6.17,2.62
			c-4.52,1.41-9.34-0.6-13.83,1.05c-4.56,1.68-7.34,5.72-9.78,9.71c-1.68,2.75,2.64,5.27,4.32,2.52c1.71-2.8,3.7-6.28,6.96-7.47
			c2.02-0.74,4.26-0.45,6.35-0.31c2.25,0.14,4.47,0.1,6.66-0.49c2.21-0.6,4.29-1.63,6.37-2.58c1.97-0.9,3.99-1.65,6.07-2.25
			c4.15-1.19,8.43-1.8,12.73-2.07c5.1-0.33,10.21-0.24,15.31-0.13C114.79,29.84,114.79,24.84,111.57,24.78L111.57,24.78z"/>
	</g>
</g>
<g>
	<g>
		<path class="st1" d="M47.24,43.4c-0.23,4.25,2.13,8.01,4.07,11.6c2.07,3.81,4.13,7.63,6.2,11.44c1.53,2.83,5.85,0.31,4.32-2.52
			c-1.93-3.56-3.86-7.13-5.79-10.69c-1.62-3-3.99-6.27-3.8-9.83c0.07-1.35-1.2-2.5-2.5-2.5C48.33,40.9,47.31,42.05,47.24,43.4
			L47.24,43.4z"/>
	</g>
</g>
<g>
	<g>
		<path class="st1" d="M62.39,65.48c-3.35-3.06-6.82-5.97-10.42-8.73c-1.71-1.32-3.45-2.6-5.22-3.84c-1.65-1.16-3.36-2.29-5.31-2.85
			c-4.34-1.26-8.32,1.29-11.95,3.35c-3.94,2.24-7.75,4.71-11.4,7.39c-1.09,0.8-1.63,2.17-0.9,3.42c0.63,1.07,2.33,1.7,3.42,0.9
			c3.28-2.4,6.67-4.64,10.18-6.69c1.73-1.01,3.47-2,5.26-2.89c1.46-0.72,2.86-1.12,4.44-0.54c1.63,0.6,3.08,1.76,4.48,2.76
			c1.58,1.13,3.15,2.29,4.69,3.48c3.17,2.46,6.22,5.06,9.18,7.77C61.22,71.19,64.77,67.66,62.39,65.48L62.39,65.48z"/>
	</g>
</g>
</svg>
