<?xml version="1.0" encoding="utf-8"?>
<!-- Generator: Adobe Illustrator 24.3.0, SVG Export Plug-In . SVG Version: 6.00 Build 0)  -->
<svg version="1.1" id="레이어_1" xmlns="http://www.w3.org/2000/svg" xmlns:xlink="http://www.w3.org/1999/xlink" x="0px"
	 y="0px" viewBox="0 0 225.2 356.9" style="enable-background:new 0 0 225.2 356.9;" xml:space="preserve">
<style type="text/css">
	.st0{fill:#DD94BE;stroke:#000000;stroke-width:8;stroke-miterlimit:10;}
</style>
<circle class="st0" cx="117.5" cy="160.7" r="42.1"/>
<path class="st0" d="M60.9,323.2c0,0,0-115,59.1-116.7c59.1-1.7,58.7,111.7,58.7,111.7"/>
<g>
	<g>
		<path d="M42.4,95c12.4-12.4,20.8-28.7,23.5-46.1c-1.6-0.2-3.3-0.4-4.9-0.7c0.4,5,1.1,10,2.1,14.9c0.5,2.5,1.1,4.9,1.7,7.4
			c0.6,2.1,1,5,2.7,6.6c3.5,3.3,8.5,0,10.9-3c2.5-3.1,3.9-7,4.9-10.8c1.3-5.2,2.2-10.6,3.3-15.9c-1.6,0-3.2,0-4.8,0
			c3.2,8.1,2.9,17.1,6.1,25.2c2.6,6.7,7.6,13.3,15.2,14.6c1.3,0.2,2.7-0.4,3.1-1.7c0.3-1.2-0.4-2.8-1.7-3.1
			c-6.3-1.1-10.2-6.8-12.2-12.4c-2.7-7.7-2.6-16.2-5.6-23.8c-0.4-1-1.2-1.8-2.4-1.8c-1,0-2.2,0.8-2.4,1.8c-0.9,4.3-1.7,8.6-2.6,12.8
			c-0.6,3.1-1.3,6.3-2.8,9.2c-0.9,1.9-3.2,5.6-5.6,5.3c0.4,0.1,0.1,0.2,0.1-0.1c-0.1-0.5-0.3-1-0.4-1.4c-0.3-1.1-0.6-2.1-0.9-3.2
			c-0.5-2.1-1-4.1-1.5-6.2c-1-4.7-1.7-9.5-2.1-14.3c-0.1-1.2-0.9-2.3-2.2-2.5c-1.1-0.1-2.5,0.5-2.7,1.8c-2.6,16.6-10.4,32-22.2,43.9
			C36.6,93.7,40.1,97.3,42.4,95L42.4,95z"/>
	</g>
</g>
<g>
	<g>
		<path d="M119.9,42.1c-0.2,5-0.4,10.2,1.4,14.9c1.6,4.1,4.6,7.7,8.7,9.4c4.1,1.7,8.5,0.8,11.9-2c3.2-2.6,5.2-6.5,6.2-10.4
			c1.4-5.3,1.4-11,3.4-16.2c-1.5,0.2-3,0.4-4.6,0.6c7.6,17.7,12,36.9,12.8,56.2c0.1,2.1,0.3,4.4-1,6.1c-1,1.4-2.7,2.3-4.2,3
			c-3.7,1.6-8.5,2.1-12.2,0.2c-3-1.6-5.4-4.7-5.3-8.2c0.1-4.1,3.6-7.3,6.3-9.9c7.2-6.8,15.8-12.2,25-15.8c1.3-0.5,2.1-1.7,1.7-3.1
			c-0.3-1.2-1.8-2.2-3.1-1.7c-9.5,3.7-18.2,9-25.8,15.8c-3.6,3.3-7.6,7-8.8,12c-1.2,4.6,0.6,9.5,3.9,12.8c3.6,3.5,8.8,4.9,13.7,4.3
			c4.8-0.6,10.1-2.6,13-6.7c1.6-2.3,1.9-5,1.8-7.7c-0.1-2.7-0.3-5.4-0.5-8.1c-0.5-5.5-1.2-11-2.3-16.5c-2.3-12.1-5.9-23.8-10.8-35.1
			c-0.4-0.9-1.6-1.3-2.5-1.2c-1.1,0.2-1.7,0.8-2.1,1.8c-2.9,7.2-1.4,16.1-6.4,22.4c-1.8,2.2-4.5,3.9-7.4,3.2
			c-3.1-0.7-5.5-3.3-6.8-6.2c-1.9-4.3-1.6-9.3-1.4-13.9C125,38.9,120,38.9,119.9,42.1L119.9,42.1z"/>
	</g>
</g>
</svg>
