<?xml version="1.0" encoding="utf-8"?>
<!-- Generator: Adobe Illustrator 24.3.0, SVG Export Plug-In . SVG Version: 6.00 Build 0)  -->
<svg version="1.1" id="레이어_1" xmlns="http://www.w3.org/2000/svg" xmlns:xlink="http://www.w3.org/1999/xlink" x="0px"
	 y="0px" viewBox="0 0 318.2 300" style="enable-background:new 0 0 318.2 300;" xml:space="preserve">
<style type="text/css">
	.st0{fill:#EED567;}
	.st1{fill:none;stroke:#000000;stroke-miterlimit:10;}
</style>
<g>
	<g>
		<path class="st0" d="M30.3,130.7c13.3,17.5,26.6,35.1,39.9,52.6c13.3,17.6,26.7,35.2,40,52.8c7.5,9.9,15,19.8,22.5,29.7
			c0.8,1,1.6,2,2.3,3c1.4,1.5,3,2.5,4.8,3.1c3,1.3,6.6,1.8,9.8,0.8c2.5-0.8,4.7-2.1,6.6-3.9c1.5-1.4,2.5-3,3.1-4.8
			c0.9-1.8,1.4-3.7,1.3-5.8c1.9-20.1,3.8-40.1,5.6-60.2c1.9-20.1,3.8-40.1,5.6-60.2c1.1-11.3,2.1-22.6,3.2-33.8
			c0.3-3.6-1.9-8.1-4.4-10.6c-2.6-2.6-6.9-4.6-10.6-4.4c-3.9,0.2-7.9,1.4-10.6,4.4c-0.8,1-1.6,2-2.3,3c-1.4,2.3-2,4.9-2,7.6
			c-1.9,20.1-3.8,40.1-5.6,60.2s-3.8,40.1-5.6,60.2c-1.1,11.3-2.1,22.6-3.2,33.8c9.3-2.5,18.6-5,28-7.6
			C145.3,233,132,215.5,118.7,198c-13.3-17.6-26.7-35.2-40-52.8c-7.5-9.9-15-19.8-22.5-29.7c-0.9-1.7-2.2-3.2-3.9-4.2
			c-1.4-1.3-3.1-2.2-5.1-2.7c-3.6-1-8.4-0.5-11.6,1.5c-3.2,2.1-6,5.1-6.9,9C28,122.8,27.9,127.5,30.3,130.7L30.3,130.7z"/>
	</g>
</g>
<g>
	<g>
		<path class="st0" d="M248.2,35.3c-24.5-0.6-48.3,14.2-60.1,35.4c-6.8,12.2-10.1,27-7,40.8c0.9,3.8,2.5,7.7,4.7,10.9
			c2.1,3,4.4,5.9,7.2,8.2c2.9,2.3,5.9,4.5,9.2,6.2c3.4,1.7,6.9,3.1,10.5,4.4c6.6,2.3,13.5,3.9,20.4,5.2c4.8,0.9,9.5,1.6,14.4,2.2
			c3.6,0.5,7.2,0.7,10.7,1.2c-1.3-0.2-2.7-0.4-4-0.5c1.9,0.3,3.7,0.7,5.5,1.4c-1.2-0.5-2.4-1-3.6-1.5c1,0.4,1.9,1,2.8,1.6
			c-1-0.8-2-1.6-3-2.3c0.8,0.7,1.5,1.4,2.2,2.2c-0.8-1-1.6-2-2.3-3c1,1.3,1.7,2.7,2.3,4.1c-0.5-1.2-1-2.4-1.5-3.6
			c0.9,2.2,1.5,4.5,1.8,6.8c-0.2-1.3-0.4-2.7-0.5-4c0.4,2.9,0.3,5.7,0,8.6c0.2-1.3,0.4-2.7,0.5-4c-0.5,3.6-1.5,7-2.9,10.3
			c0.5-1.2,1-2.4,1.5-3.6c-1.6,3.7-3.6,7.2-6.1,10.4c0.8-1,1.6-2,2.3-3c-3.5,4.5-7.6,8.3-12.1,11.8c1-0.8,2-1.6,3-2.3
			c-4.8,3.7-9.8,6.9-15,10c-5.3,3.2-10.6,6.4-16.3,8.8c1.2-0.5,2.4-1,3.6-1.5c-3.2,1.4-6.5,2.4-10,2.9c1.3-0.2,2.7-0.4,4-0.5
			c-2.1,0.3-4.2,0.3-6.3,0c1.3,0.2,2.7,0.4,4,0.5c-1.6-0.2-3-0.6-4.5-1.2c-2-0.6-4-0.7-6-0.3c-2,0.1-3.9,0.7-5.6,1.8
			c-3.1,1.8-6.1,5.4-6.9,9c-0.9,3.8-0.7,8.1,1.5,11.6c0.8,1,1.6,2,2.3,3c1.9,1.9,4.1,3.1,6.6,3.9c6.8,2.5,14.5,2.2,21.5,0.6
			c6-1.4,11.7-4.1,17.1-7c8.6-4.6,17.2-9.8,25-15.7c4.7-3.6,9.4-7.4,13.3-11.9c3.8-4.3,7.2-9.1,9.7-14.3c1.4-3.1,2.8-6.3,3.8-9.6
			c1-3.4,1.4-6.9,1.8-10.4c0.2-2.2,0.3-4.4,0.1-6.6c-0.3-3.4-0.7-6.9-1.8-10.1c-0.7-2.3-1.7-4.6-2.8-6.7c-1.1-2.2-2.6-4-4.1-5.9
			c-3.1-3.8-7.4-6.1-12-7.8c-3.6-1.4-7.6-1.7-11.4-2c-3-0.3-6-0.6-9-1c1.3,0.2,2.7,0.4,4,0.5c-6.2-0.8-12.4-2-18.5-3.5
			c-5.3-1.3-10.6-2.7-15.6-4.8c1.2,0.5,2.4,1,3.6,1.5c-3.2-1.3-6.2-2.9-8.9-5c1,0.8,2,1.6,3,2.3c-1.7-1.3-3.2-2.8-4.5-4.5
			c0.8,1,1.6,2,2.3,3c-1.1-1.4-1.9-2.9-2.6-4.5c0.5,1.2,1,2.4,1.5,3.6c-0.8-1.9-1.3-3.9-1.6-5.9c0.2,1.3,0.4,2.7,0.5,4
			c-0.4-3.3-0.3-6.6,0.1-9.9c-0.2,1.3-0.4,2.7-0.5,4c0.6-4.2,1.7-8.2,3.3-12.1c-0.5,1.2-1,2.4-1.5,3.6c1.8-4.2,4.1-8.1,6.9-11.8
			c-0.8,1-1.6,2-2.3,3c3-3.8,6.4-7.2,10.2-10.2c-1,0.8-2,1.6-3,2.3c3.7-2.9,7.8-5.2,12.1-7.1c-1.2,0.5-2.4,1-3.6,1.5
			c4.2-1.8,8.6-3,13.1-3.6c-1.3,0.2-2.7,0.4-4,0.5c2.4-0.3,4.9-0.4,7.4-0.4c3.8,0.1,8-1.7,10.6-4.4c2.6-2.6,4.6-6.9,4.4-10.6
			c-0.2-3.9-1.4-7.9-4.4-10.6C255.8,37,252.3,35.4,248.2,35.3L248.2,35.3z"/>
	</g>
</g>
<g>
	<g>
		<path d="M18.4,123.7c13.3,17.5,26.6,35.1,39.9,52.6c13.3,17.6,26.7,35.2,40,52.8c7.5,9.9,15,19.8,22.5,29.7c0.8,1,1.6,2,2.3,3
			c1.4,1.5,3,2.5,4.8,3.1c3,1.3,6.6,1.8,9.8,0.8c2.5-0.8,4.7-2.1,6.6-3.9c1.5-1.4,2.5-3,3.1-4.8c0.9-1.8,1.4-3.7,1.3-5.8
			c1.9-20.1,3.8-40.1,5.6-60.2s3.8-40.1,5.6-60.2c1.1-11.3,2.1-22.6,3.2-33.8c0.3-3.6-1.9-8.1-4.4-10.6c-2.6-2.6-6.9-4.6-10.6-4.4
			c-3.9,0.2-7.9,1.4-10.6,4.4c-0.8,1-1.6,2-2.3,3c-1.4,2.3-2,4.9-2,7.6c-1.9,20.1-3.8,40.1-5.6,60.2c-1.9,20.1-3.8,40.1-5.6,60.2
			c-1.1,11.3-2.1,22.6-3.2,33.8c9.3-2.5,18.6-5,28-7.6c-13.3-17.5-26.6-35.1-39.9-52.6c-13.3-17.6-26.7-35.2-40-52.8
			c-7.5-9.9-15-19.8-22.5-29.7c-0.9-1.7-2.2-3.2-3.9-4.2c-1.4-1.3-3.1-2.2-5.1-2.7c-3.6-1-8.4-0.5-11.6,1.5c-3.2,2.1-6,5.1-6.9,9
			C16.1,115.8,16.1,120.5,18.4,123.7L18.4,123.7z"/>
	</g>
</g>
<g>
	<g>
		<path d="M236.3,28.3c-24.5-0.6-48.3,14.2-60.1,35.4c-6.8,12.2-10.1,27-7,40.8c0.9,3.8,2.5,7.7,4.7,10.9c2.1,3,4.4,5.9,7.2,8.2
			c2.9,2.3,5.9,4.5,9.2,6.2c3.4,1.7,6.9,3.1,10.5,4.4c6.6,2.3,13.5,3.9,20.4,5.2c4.8,0.9,9.5,1.6,14.4,2.2c3.6,0.5,7.2,0.7,10.7,1.2
			c-1.3-0.2-2.7-0.4-4-0.5c1.9,0.3,3.7,0.7,5.5,1.4c-1.2-0.5-2.4-1-3.6-1.5c1,0.4,1.9,1,2.8,1.6c-1-0.8-2-1.6-3-2.3
			c0.8,0.7,1.5,1.4,2.2,2.2c-0.8-1-1.6-2-2.3-3c1,1.3,1.7,2.7,2.3,4.1c-0.5-1.2-1-2.4-1.5-3.6c0.9,2.2,1.5,4.5,1.8,6.8
			c-0.2-1.3-0.4-2.7-0.5-4c0.4,2.9,0.3,5.7,0,8.6c0.2-1.3,0.4-2.7,0.5-4c-0.5,3.6-1.5,7-2.9,10.3c0.5-1.2,1-2.4,1.5-3.6
			c-1.6,3.7-3.6,7.2-6.1,10.4c0.8-1,1.6-2,2.3-3c-3.5,4.5-7.6,8.3-12.1,11.8c1-0.8,2-1.6,3-2.3c-4.8,3.7-9.8,6.9-15,10
			c-5.3,3.2-10.6,6.4-16.3,8.8c1.2-0.5,2.4-1,3.6-1.5c-3.2,1.4-6.5,2.4-10,2.9c1.3-0.2,2.7-0.4,4-0.5c-2.1,0.3-4.2,0.3-6.3,0
			c1.3,0.2,2.7,0.4,4,0.5c-1.6-0.2-3-0.6-4.5-1.2c-2-0.6-4-0.7-6-0.3c-2,0.1-3.9,0.7-5.6,1.8c-3.1,1.8-6.1,5.4-6.9,9
			c-0.9,3.8-0.7,8.1,1.5,11.6c0.8,1,1.6,2,2.3,3c1.9,1.9,4.1,3.1,6.6,3.9c6.8,2.5,14.5,2.2,21.5,0.6c6-1.4,11.7-4.1,17.1-7
			c8.6-4.6,17.2-9.8,25-15.7c4.7-3.6,9.4-7.4,13.3-11.9c3.8-4.3,7.3-9.1,9.7-14.3c1.4-3.1,2.8-6.3,3.8-9.6c1-3.4,1.4-6.9,1.8-10.4
			c0.2-2.2,0.3-4.4,0.1-6.6c-0.3-3.4-0.7-6.9-1.8-10.1c-0.7-2.3-1.7-4.6-2.8-6.7c-1.1-2.2-2.6-4-4.1-5.9c-3.1-3.8-7.4-6.1-12-7.8
			c-3.6-1.4-7.6-1.7-11.4-2c-3-0.3-6-0.6-9-1c1.3,0.2,2.7,0.4,4,0.5c-6.2-0.8-12.4-2-18.5-3.5c-5.3-1.3-10.6-2.7-15.6-4.8
			c1.2,0.5,2.4,1,3.6,1.5c-3.2-1.3-6.2-2.9-8.9-5c1,0.8,2,1.6,3,2.3c-1.7-1.3-3.2-2.8-4.5-4.5c0.8,1,1.6,2,2.3,3
			c-1.1-1.4-1.9-2.9-2.6-4.5c0.5,1.2,1,2.4,1.5,3.6c-0.8-1.9-1.3-3.9-1.6-5.9c0.2,1.3,0.4,2.7,0.5,4c-0.4-3.3-0.3-6.6,0.1-9.9
			c-0.2,1.3-0.4,2.7-0.5,4c0.6-4.2,1.7-8.2,3.3-12.1c-0.5,1.2-1,2.4-1.5,3.6c1.8-4.2,4.1-8.1,6.9-11.8c-0.8,1-1.6,2-2.3,3
			c3-3.8,6.4-7.2,10.2-10.2c-1,0.8-2,1.6-3,2.3c3.7-2.9,7.8-5.2,12.1-7.1c-1.2,0.5-2.4,1-3.6,1.5c4.2-1.8,8.6-3,13.1-3.6
			c-1.3,0.2-2.7,0.4-4,0.5c2.4-0.3,4.9-0.4,7.4-0.4c3.8,0.1,8-1.7,10.6-4.4c2.6-2.6,4.6-6.9,4.4-10.6c-0.2-3.9-1.4-7.9-4.4-10.6
			C243.9,30,240.4,28.4,236.3,28.3L236.3,28.3z"/>
	</g>
</g>
<path class="st1" d="M36.4-21.2"/>
</svg>
