<?xml version="1.0" encoding="utf-8"?>
<!-- Generator: Adobe Illustrator 24.3.0, SVG Export Plug-In . SVG Version: 6.00 Build 0)  -->
<svg version="1.1" id="레이어_1" xmlns="http://www.w3.org/2000/svg" xmlns:xlink="http://www.w3.org/1999/xlink" x="0px"
	 y="0px" viewBox="0 0 328.3 269.4" style="enable-background:new 0 0 328.3 269.4;" xml:space="preserve">
<style type="text/css">
	.st0{fill:#289A79;stroke:#000000;stroke-width:7;stroke-miterlimit:10;}
	.st1{fill:#B4D06B;stroke:#000000;stroke-width:7;stroke-miterlimit:10;}
	.st2{stroke:#000000;stroke-width:2;stroke-miterlimit:10;}
</style>
<path class="st0" d="M76.6,230.7c0,0-35.6,8.5-50.3-17s7.7-54.2,7.7-54.2S25.2,112.3,49,89s45.5-20.9,45.5-20.9S137.8,3.9,209,27.9
	s60.4,87.5,60.4,87.5s61.9,14.7,42.6,92.1s-93.7,35.6-93.7,35.6l-94.5,3.9c0,0-20.1,6.4-28.1,3.1C87.9,246.8,75.7,238.8,76.6,230.7z
	"/>
<path class="st1" d="M117.3,201.9c0,0,17.5-0.5,24.8-7.7c7.2-7.2,8.5-11.2,8.5-11.2s23,14.1,39,13.8c16-0.3,26.8-2.8,26.8-2.8
	l1.3,43.4c0,0-1,2.1,3.6,5.9c4.6,3.9-107.9,7.2-107.9,7.2s6.1-3.9,5.3-13.2C117.9,228,117.3,201.9,117.3,201.9z"/>
<g>
	<g>
		<path d="M146.5,179.9c0.2,0.5,0.2,0.4,0-0.2c0.1,0.2,0.2,0.5,0.2,0.7c0.1,0.2,0.1,0.5,0.2,0.7c0.1,0.6,0.1,0.5,0-0.2
			c0.2,0.3,0,1.2,0,1.5c-0.1,0.6,0,0.5,0-0.2c0,0.3-0.1,0.5-0.2,0.8c-0.1,0.4-0.2,1.2-0.5,1.5c0.3-0.6,0.3-0.6,0-0.1
			c-0.1,0.2-0.2,0.5-0.4,0.7c-0.2,0.3-0.4,0.7-0.6,1c-0.3,0.4-0.3,0.4,0.1-0.1c-0.2,0.2-0.3,0.4-0.5,0.6c-0.4,0.4-0.7,0.8-1.1,1.1
			c-0.2,0.2-1.5,1.2-0.6,0.5c-0.9,0.6-1.8,1.2-2.8,1.8c-0.8,0.5-1.7,0.9-2.6,1.3c-0.2,0.1-0.5,0.2-0.8,0.3c0.6-0.2,0.6-0.2,0,0
			c-0.6,0.2-1.1,0.5-1.7,0.7c-4.4,1.7-9,2.8-13.7,3.5c1.1-0.2-0.7,0.1-0.9,0.1c-0.5,0-0.9,0.1-1.4,0.1c-1.2,0.1-2.4,0.2-3.6,0.2
			c-2.4,0.1-4.9,0-7.3-0.2c-2.6-0.2-5.1,2.5-5,5c0.1,2.9,2.2,4.8,5,5c8.5,0.7,17.3-0.2,25.5-2.7c7.7-2.3,16.9-6,20.8-13.6
			c2.4-4.7,2.8-10.2,0.3-15c-1.2-2.3-4.6-3.2-6.8-1.8C145.9,174.6,145.2,177.4,146.5,179.9L146.5,179.9z"/>
	</g>
</g>
<g>
	<g>
		<path d="M147.4,180.9c7.7,7.6,17.1,13.2,27.3,16.4c10.6,3.4,21.9,3.8,32.8,1.8c6.3-1.2,12.4-3.4,18.2-6.3c2.3-1.2,3.2-4.7,1.8-6.8
			c-1.5-2.4-4.3-3.1-6.8-1.8c-1.1,0.6-2.2,1.1-3.4,1.6c-0.1,0.1-1,0.4-0.4,0.2c0.7-0.3-0.7,0.3-0.6,0.2c-0.6,0.2-1.2,0.5-1.8,0.7
			c-2.4,0.9-4.9,1.6-7.4,2.1c-1.2,0.3-2.4,0.5-3.7,0.7c-0.3,0-0.6,0.1-0.9,0.1c-0.2,0-1.1,0.1-0.4,0.1c0.7-0.1-0.3,0-0.4,0
			c-0.4,0-0.9,0.1-1.3,0.1c-2.6,0.2-5.1,0.3-7.7,0.2c-1.2,0-2.3-0.1-3.5-0.2c-0.7-0.1-1.3-0.1-2-0.2c-0.8-0.1,0.8,0.1,0,0
			c-0.4-0.1-0.7-0.1-1.1-0.2c-2.4-0.4-4.9-0.9-7.2-1.6c-2.2-0.6-4.4-1.4-6.6-2.3c1,0.4-0.4-0.2-0.7-0.3c-0.6-0.3-1.1-0.5-1.7-0.8
			c-1.1-0.5-2.2-1.1-3.3-1.7c-2.3-1.3-4.6-2.8-6.7-4.4c-0.2-0.2-0.4-0.3-0.7-0.5c0.9,0.7-0.2-0.1-0.3-0.2c-0.5-0.4-1.1-0.9-1.6-1.3
			c-1-0.9-2-1.8-3-2.8c-1.9-1.8-5.2-2-7.1,0C145.6,175.8,145.4,178.9,147.4,180.9L147.4,180.9z"/>
	</g>
</g>
<circle class="st2" cx="183" cy="219.2" r="5.4"/>
<circle class="st2" cx="157" cy="220.2" r="5.4"/>
<g>
	<g>
		<path d="M162.2,236.1c4.5-0.1,8.9,0,13.4,0.4c1.3,0.1,2.6-1.2,2.5-2.5c-0.1-1.5-1.1-2.4-2.5-2.5c-4.4-0.4-8.9-0.5-13.4-0.4
			c-1.3,0-2.6,1.1-2.5,2.5C159.8,235,160.8,236.2,162.2,236.1L162.2,236.1z"/>
	</g>
</g>
</svg>
