<?xml version="1.0" encoding="utf-8"?>
<!-- Generator: Adobe Illustrator 24.3.0, SVG Export Plug-In . SVG Version: 6.00 Build 0)  -->
<svg version="1.1" id="레이어_1" xmlns="http://www.w3.org/2000/svg" xmlns:xlink="http://www.w3.org/1999/xlink" x="0px"
	 y="0px" viewBox="0 0 137.8 123.9" style="enable-background:new 0 0 137.8 123.9;" xml:space="preserve">
<style type="text/css">
	.st0{fill:#9A827F;stroke:#6B4F4D;stroke-width:3;stroke-miterlimit:10;}
	.st1{fill:#F5C31E;}
	.st2{fill:#404041;}
	.st3{fill:#414041;}
	.st4{fill:#E61C44;stroke:#414041;stroke-miterlimit:10;}
</style>
<circle class="st0" cx="107" cy="28.8" r="15.4"/>
<circle class="st0" cx="29.1" cy="36.1" r="15.4"/>
<ellipse transform="matrix(0.9995 -3.294913e-02 3.294913e-02 0.9995 -2.1809 2.3928)" class="st0" cx="71.5" cy="67.4" rx="51.4" ry="46.7"/>
<path class="st1" d="M55.5,73.5c6.5-13.9,31.9-14.2,37-1.5c3.3,7.7-2.8,15.6-3.9,17C77.2,106.8,52.9,92.5,55.5,73.5z"/>
<circle class="st2" cx="55.1" cy="60.7" r="3.7"/>
<circle class="st2" cx="88.8" cy="57.5" r="3.7"/>
<path class="st3" d="M80.2,71.1c0,2-12.5,2-12.5,0c0-2,2.8-3.6,6.3-3.6S80.2,69.1,80.2,71.1z"/>
<path class="st4" d="M74.2,78c-1.5,2.4-3.4,4.7-5.5,4.5c-0.8-0.1-1.4-0.4-1.5-0.3c-0.3,0.4,2.6,4.3,6.6,4.5c4.3,0.2,7.8-3.8,7.4-5
	c-0.4-1-3.1-0.1-5.6-2.3C74.9,78.9,74.4,78.4,74.2,78z"/>
<line class="st4" x1="83.6" y1="78" x2="81.1" y2="82.2"/>
<line class="st4" x1="64.7" y1="79.4" x2="67.2" y2="82.6"/>
<line class="st4" x1="74.1" y1="78.3" x2="74.1" y2="72.6"/>
<g>
	<g>
		<path class="st2" d="M43.7,51c7.1-0.3,12.5-4.9,17.4-9.5c1-0.9,1-2.6,0-3.5c-1-0.9-2.5-1-3.5,0c-2.2,2-4.3,4-6.7,5.5
			c-1.2,0.7-2.4,1.4-3.4,1.7c-0.7,0.2-1.4,0.4-2.1,0.6c-0.2,0-0.4,0.1-0.5,0.1c-0.3,0-0.4,0.1-0.1,0C44.4,46,44,46,43.7,46
			c-1.3,0.1-2.6,1.1-2.5,2.5C41.2,49.8,42.3,51,43.7,51L43.7,51z"/>
	</g>
</g>
<g>
	<g>
		<path class="st2" d="M77.6,39.1c5.4,2.6,11.2,4,17.2,3.8c1.3,0,2.6-1.1,2.5-2.5c-0.1-1.3-1.1-2.5-2.5-2.5
			C89.7,38,84.7,37,80.1,34.8c-1.2-0.6-2.8-0.4-3.4,0.9C76.1,36.8,76.4,38.5,77.6,39.1L77.6,39.1z"/>
	</g>
</g>
</svg>
