<?xml version="1.0" encoding="utf-8"?>
<!-- Generator: Adobe Illustrator 24.3.0, SVG Export Plug-In . SVG Version: 6.00 Build 0)  -->
<svg version="1.1" id="레이어_1" xmlns="http://www.w3.org/2000/svg" xmlns:xlink="http://www.w3.org/1999/xlink" x="0px"
	 y="0px" viewBox="0 0 137.8 174.4" style="enable-background:new 0 0 137.8 174.4;" xml:space="preserve">
<style type="text/css">
	.st0{fill:#FFFFFF;stroke:#000000;stroke-miterlimit:10;}
	.st1{fill:#E16481;stroke:#000000;stroke-width:4;stroke-miterlimit:10;}
	.st2{fill:#FFFFFF;}
	.st3{stroke:#000000;stroke-miterlimit:10;}
	.st4{fill:none;stroke:#000000;stroke-miterlimit:10;}
	.st5{fill:#040000;stroke:#000000;stroke-miterlimit:10;}
	.st6{fill:#F9DBDD;}
</style>
<path class="st0" d="M66.5,167.7c0,0-49.5-5.6-54-23s7-23,7-23s3.3-27.3,18.4-32.9C53,83.1,52.6,85,52.6,85h34.8
	c0,0,14.7-0.8,20.5,12s6.8,14.1,7.4,19.7c0.6,5.6,0,6.6,0,6.6s15.7,6.4,4.5,24.4S66.5,167.7,66.5,167.7z"/>
<polygon class="st1" points="64,97 73.5,97.4 72.5,104 64,104 "/>
<path class="st0" d="M49.7,80.7c-2.1-9.3-12.3-57,1.6-64.6c0.9-0.5,5.9-3.3,10.3-1.2c5.9,2.8,6.2,12.6,6.2,12.6l-1.4,57.2
	C60.9,83.3,55.3,82,49.7,80.7z"/>
<path class="st0" d="M73.7,85c0,0,4.4-70,19.5-67.5s10.5,23,10.5,23L89.1,85.8L73.7,85z"/>
<polygon class="st2" points="74.9,78.4 73.2,88.8 88.9,91.6 89.3,81.7 "/>
<polygon class="st2" points="50.5,78 48.7,88.5 65.6,91.2 66.1,81.3 "/>
<path class="st3" d="M46.8,121.7l8.4,2.8C54.9,131.6,41.9,129.3,46.8,121.7z"/>
<path class="st4" d="M58.2,135c0,0,3.7,4.7,6.8,4c3.1-0.7,6.5-2.7,6.5-2.7"/>
<ellipse class="st1" cx="44.9" cy="98.8" rx="18.6" ry="16.8"/>
<ellipse class="st1" cx="91.4" cy="102.8" rx="18.1" ry="16.3"/>
<ellipse class="st2" cx="45.3" cy="98.3" rx="11.1" ry="10.3"/>
<ellipse class="st2" cx="91.3" cy="102.7" rx="11.1" ry="10.3"/>
<path class="st3" d="M76.5,126.2h9.1c0,0,0.7,4.3-3.5,5.5S76.5,126.2,76.5,126.2z"/>
<path class="st5" d="M62.8,129.4c0.7-1.2,5.3-0.6,5.7,1c0.2,1-1.1,2.6-2.7,2.6C63.6,133.1,62.3,130.3,62.8,129.4z"/>
<path class="st5" d="M66.5,85"/>
<ellipse class="st6" cx="30.6" cy="134.1" rx="12.1" ry="8.4"/>
<ellipse class="st6" cx="97.7" cy="141.4" rx="12.1" ry="8.4"/>
</svg>
